<?xml version="1.0" encoding="utf-8"?>
<!-- Generator: Adobe Illustrator 19.0.0, SVG Export Plug-In . SVG Version: 6.00 Build 0)  -->
<svg version="1.1" id="Layer_1" xmlns="http://www.w3.org/2000/svg" xmlns:xlink="http://www.w3.org/1999/xlink" x="0px" y="0px"
	 viewBox="-468.3 230.8 110.8 75" style="enable-background:new -468.3 230.8 110.8 75;" xml:space="preserve">
<style type="text/css">
	.st0{fill:#3B8070;}
	.st1{fill:#35495E;}
	.st2{fill:#41B883;}
</style>
<g>
	<polygon class="st0" points="-357.5,305.6 -381.8,305.6 -407.3,261.5 -395.2,240.4 	"/>
	<path class="st1" d="M-381.8,305.6h-51l4.7-8.1h3.1v4.3l16.2-9.5h-16.3l5.5-9.6h1.9c2.6,0,4.8,2.2,4.8,4.8c0,1.2-0.4,2.3-1.2,3.1
		h5.8c0.3-1,0.5-2,0.5-3.1c0.1-4.2-2.5-7.8-6.1-9.2c1.1-1.6,1.7-3.5,1.7-5.5c0-0.8-0.1-1.6-0.3-2.4l5.2-9L-381.8,305.6z"/>
	<polygon class="st2" points="-381.7,305.8 -468.3,305.8 -425,230.8 -407.3,261.5 -432.8,305.6 -381.8,305.6 	"/>
	<g>
		<polygon class="st2" points="-425,301.8 -425,297.5 -428.1,297.5 -425.1,292.3 -408.8,292.3 		"/>
		<polygon class="st1" points="-425.1,292.3 -428.1,297.5 -439.6,297.5 -439.6,269.6 -434.5,269.6 -434.5,292.3 		"/>
		<path class="st2" d="M-407.8,287.5c0,1.1-0.2,2.1-0.5,3.1h-5.8c0.8-0.8,1.2-1.9,1.2-3.1c0-2.6-2.2-4.8-4.8-4.8h-1.9l7.1-12.3
			c0.2,0.8,0.3,1.5,0.3,2.4c0,2-0.6,3.9-1.7,5.5C-410.3,279.7-407.7,283.3-407.8,287.5z"/>
		<path class="st1" d="M-412.5,270.4l-7.1,12.3h-13.3v-5.2h10.6c2.6,0,4.8-2.2,4.8-4.8c0-2.6-2.1-4.8-4.8-4.8h-17.2l14.5-8.5v3.4
			h2.8C-417.5,262.8-413.5,266.1-412.5,270.4z"/>
	</g>
</g>
</svg>
